<svg width="12" height="12" viewBox="0 0 12 12" fill="none" xmlns="http://www.w3.org/2000/svg">
<g filter="url(#filter0_di_9068_33)">
<path fill-rule="evenodd" clip-rule="evenodd" d="M5.95935 10.681C5.28453 10.0532 -0.0218521 5.05023 6.77181e-05 2.98327C0.0235556 0.775808 1.42727 -0.0226816 3.02404 0.000488394C4.53537 0.0231884 5.85737 1.32853 5.99439 1.46801C6.1314 1.32853 7.45338 0.0231885 8.96488 0.000488394C10.5617 -0.0226816 11.9652 0.775808 11.9888 2.98327C12.0107 5.05023 6.70429 10.0532 6.02947 10.681L6.02964 10.7461C6.02964 10.7461 6.01753 10.735 5.99441 10.7136C5.97129 10.735 5.95919 10.7461 5.95919 10.7461L5.95935 10.681Z" fill="#333333"/>
<path fill-rule="evenodd" clip-rule="evenodd" d="M5.95935 10.681C5.28453 10.0532 -0.0218521 5.05023 6.77181e-05 2.98327C0.0235556 0.775808 1.42727 -0.0226816 3.02404 0.000488394C4.53537 0.0231884 5.85737 1.32853 5.99439 1.46801C6.1314 1.32853 7.45338 0.0231885 8.96488 0.000488394C10.5617 -0.0226816 11.9652 0.775808 11.9888 2.98327C12.0107 5.05023 6.70429 10.0532 6.02947 10.681L6.02964 10.7461C6.02964 10.7461 6.01753 10.735 5.99441 10.7136C5.97129 10.735 5.95919 10.7461 5.95919 10.7461L5.95935 10.681Z" fill="#73B4D5"/>
</g>
<defs>
<filter id="filter0_di_9068_33" x="0" y="0" width="11.9888" height="11.7461" filterUnits="userSpaceOnUse" color-interpolation-filters="sRGB">
<feFlood flood-opacity="0" result="BackgroundImageFix"/>
<feColorMatrix in="SourceAlpha" type="matrix" values="0 0 0 0 0 0 0 0 0 0 0 0 0 0 0 0 0 0 127 0" result="hardAlpha"/>
<feOffset dy="1"/>
<feColorMatrix type="matrix" values="0 0 0 0 1 0 0 0 0 1 0 0 0 0 1 0 0 0 0.9 0"/>
<feBlend mode="normal" in2="BackgroundImageFix" result="effect1_dropShadow_9068_33"/>
<feBlend mode="normal" in="SourceGraphic" in2="effect1_dropShadow_9068_33" result="shape"/>
<feColorMatrix in="SourceAlpha" type="matrix" values="0 0 0 0 0 0 0 0 0 0 0 0 0 0 0 0 0 0 127 0" result="hardAlpha"/>
<feOffset dy="-1"/>
<feComposite in2="hardAlpha" operator="arithmetic" k2="-1" k3="1"/>
<feColorMatrix type="matrix" values="0 0 0 0 0 0 0 0 0 0 0 0 0 0 0 0 0 0 0.3 0"/>
<feBlend mode="normal" in2="shape" result="effect2_innerShadow_9068_33"/>
</filter>
</defs>
</svg>
